<svg xmlns="http://www.w3.org/2000/svg" width="1240" height="720" viewBox="0 0 1240 720">
<style>text{font-family:-apple-system,BlinkMacSystemFont,"Segoe UI",sans-serif;fill:#20252b}.title{font-size:25px;font-weight:650}.sub{font-size:14px;fill:#59636e}.axis{font-size:12px;fill:#59636e}.label{font-size:11px}.grid{stroke:#d9dee3;stroke-width:1}.frame{fill:#fff;stroke:#c9d0d6}.note{font-size:12px;fill:#59636e}</style>
<rect width="100%" height="100%" fill="#f7f8fa"/><text x="54" y="42" class="title">TEP reactor-pressure oscillation amplitude by regime</text><text x="54" y="66" class="sub">Complete FeatureGraph objects across five runs; y-axis is log₁₀(1 + amplitude).</text><line x1="80" y1="605" x2="1180" y2="605" class="grid"/><text x="68" y="609" text-anchor="end" class="axis">0.0</text><line x1="80" y1="505" x2="1180" y2="505" class="grid"/><text x="68" y="509" text-anchor="end" class="axis">0.3</text><line x1="80" y1="405" x2="1180" y2="405" class="grid"/><text x="68" y="409" text-anchor="end" class="axis">0.6</text><line x1="80" y1="305" x2="1180" y2="305" class="grid"/><text x="68" y="309" text-anchor="end" class="axis">0.9</text><line x1="80" y1="205" x2="1180" y2="205" class="grid"/><text x="68" y="209" text-anchor="end" class="axis">1.2</text><line x1="80" y1="105" x2="1180" y2="105" class="grid"/><text x="68" y="109" text-anchor="end" class="axis">1.5</text><text x="158.57142857142856" y="635" text-anchor="middle" class="axis">Fault 1</text><line x1="124.57142857142856" y1="595.8332053294215" x2="124.57142857142856" y2="476.8396270150702" stroke="#4d5964"/><line x1="117.57142857142856" y1="595.8332053294215" x2="131.57142857142856" y2="595.8332053294215" stroke="#4d5964"/><line x1="117.57142857142856" y1="476.8396270150702" x2="131.57142857142856" y2="476.8396270150702" stroke="#4d5964"/><rect x="112.57142857142856" y="511.5725939467525" width="24" height="73.08983544426121" fill="#8090a0" fill-opacity=".72" stroke="#4d5964"/><line x1="112.57142857142856" y1="547.815880261582" x2="136.57142857142856" y2="547.815880261582" stroke="#111" stroke-width="2"/><line x1="158.57142857142856" y1="583.9276512124417" x2="158.57142857142856" y2="132.38970585002198" stroke="#4d5964"/><line x1="151.57142857142856" y1="583.9276512124417" x2="165.57142857142856" y2="583.9276512124417" stroke="#4d5964"/><line x1="151.57142857142856" y1="132.38970585002198" x2="165.57142857142856" y2="132.38970585002198" stroke="#4d5964"/><rect x="146.57142857142856" y="205.42364726721752" width="24" height="318.03274711850935" fill="#e17632" fill-opacity=".72" stroke="#4d5964"/><line x1="146.57142857142856" y1="234.98443078021796" x2="170.57142857142856" y2="234.98443078021796" stroke="#111" stroke-width="2"/><line x1="192.57142857142856" y1="597.3798777037174" x2="192.57142857142856" y2="465.0935189715052" stroke="#4d5964"/><line x1="185.57142857142856" y1="597.3798777037174" x2="199.57142857142856" y2="597.3798777037174" stroke="#4d5964"/><line x1="185.57142857142856" y1="465.0935189715052" x2="199.57142857142856" y2="465.0935189715052" stroke="#4d5964"/><rect x="180.57142857142856" y="502.62268435501284" width="24" height="58.49449380517359" fill="#3d78b5" fill-opacity=".72" stroke="#4d5964"/><line x1="180.57142857142856" y1="528.26381948314" x2="204.57142857142856" y2="528.26381948314" stroke="#111" stroke-width="2"/><text x="315.7142857142857" y="635" text-anchor="middle" class="axis">Fault 2</text><line x1="281.7142857142857" y1="595.7894962428684" x2="281.7142857142857" y2="474.2457269116721" stroke="#4d5964"/><line x1="274.7142857142857" y1="595.7894962428684" x2="288.7142857142857" y2="595.7894962428684" stroke="#4d5964"/><line x1="274.7142857142857" y1="474.2457269116721" x2="288.7142857142857" y2="474.2457269116721" stroke="#4d5964"/><rect x="269.7142857142857" y="505.0966181700725" width="24" height="65.73628087276757" fill="#8090a0" fill-opacity=".72" stroke="#4d5964"/><line x1="269.7142857142857" y1="535.4087943185918" x2="293.7142857142857" y2="535.4087943185918" stroke="#111" stroke-width="2"/><line x1="315.7142857142857" y1="594.6182135520173" x2="315.7142857142857" y2="403.9366765972187" stroke="#4d5964"/><line x1="308.7142857142857" y1="594.6182135520173" x2="322.7142857142857" y2="594.6182135520173" stroke="#4d5964"/><line x1="308.7142857142857" y1="403.9366765972187" x2="322.7142857142857" y2="403.9366765972187" stroke="#4d5964"/><rect x="303.7142857142857" y="477.7083378365302" width="24" height="65.45420268179589" fill="#e17632" fill-opacity=".72" stroke="#4d5964"/><line x1="303.7142857142857" y1="513.1006299096409" x2="327.7142857142857" y2="513.1006299096409" stroke="#111" stroke-width="2"/><line x1="349.7142857142857" y1="597.0757712031632" x2="349.7142857142857" y2="456.6199386791267" stroke="#4d5964"/><line x1="342.7142857142857" y1="597.0757712031632" x2="356.7142857142857" y2="597.0757712031632" stroke="#4d5964"/><line x1="342.7142857142857" y1="456.6199386791267" x2="356.7142857142857" y2="456.6199386791267" stroke="#4d5964"/><rect x="337.7142857142857" y="505.82897912885414" width="24" height="63.73442190412095" fill="#3d78b5" fill-opacity=".72" stroke="#4d5964"/><line x1="337.7142857142857" y1="537.0167962741316" x2="361.7142857142857" y2="537.0167962741316" stroke="#111" stroke-width="2"/><text x="472.85714285714283" y="635" text-anchor="middle" class="axis">Fault 4</text><line x1="438.85714285714283" y1="602.1230268856431" x2="438.85714285714283" y2="462.50038880343516" stroke="#4d5964"/><line x1="431.85714285714283" y1="602.1230268856431" x2="445.85714285714283" y2="602.1230268856431" stroke="#4d5964"/><line x1="431.85714285714283" y1="462.50038880343516" x2="445.85714285714283" y2="462.50038880343516" stroke="#4d5964"/><rect x="426.85714285714283" y="496.93808349756273" width="24" height="77.97172705925277" fill="#8090a0" fill-opacity=".72" stroke="#4d5964"/><line x1="426.85714285714283" y1="529.8294145896167" x2="450.85714285714283" y2="529.8294145896167" stroke="#111" stroke-width="2"/><line x1="472.85714285714283" y1="601.5231478593699" x2="472.85714285714283" y2="455.2787019961422" stroke="#4d5964"/><line x1="465.85714285714283" y1="601.5231478593699" x2="479.85714285714283" y2="601.5231478593699" stroke="#4d5964"/><line x1="465.85714285714283" y1="455.2787019961422" x2="479.85714285714283" y2="455.2787019961422" stroke="#4d5964"/><rect x="460.85714285714283" y="500.3450277650944" width="24" height="71.72097084157474" fill="#e17632" fill-opacity=".72" stroke="#4d5964"/><line x1="460.85714285714283" y1="533.4142830023055" x2="484.85714285714283" y2="533.4142830023055" stroke="#111" stroke-width="2"/><line x1="506.85714285714283" y1="597.7906652438256" x2="506.85714285714283" y2="455.5821739479287" stroke="#4d5964"/><line x1="499.85714285714283" y1="597.7906652438256" x2="513.8571428571429" y2="597.7906652438256" stroke="#4d5964"/><line x1="499.85714285714283" y1="455.5821739479287" x2="513.8571428571429" y2="455.5821739479287" stroke="#4d5964"/><rect x="494.85714285714283" y="495.64319302208077" width="24" height="76.10229199216491" fill="#3d78b5" fill-opacity=".72" stroke="#4d5964"/><line x1="494.85714285714283" y1="526.9123768125946" x2="518.8571428571429" y2="526.9123768125946" stroke="#111" stroke-width="2"/><text x="630" y="635" text-anchor="middle" class="axis">Fault 6</text><line x1="596" y1="600.5175575069519" x2="596" y2="474.3735499203748" stroke="#4d5964"/><line x1="589" y1="600.5175575069519" x2="603" y2="600.5175575069519" stroke="#4d5964"/><line x1="589" y1="474.3735499203748" x2="603" y2="474.3735499203748" stroke="#4d5964"/><rect x="584" y="508.9796540901403" width="24" height="75.73756762848558" fill="#8090a0" fill-opacity=".72" stroke="#4d5964"/><line x1="584" y1="538.6995888845989" x2="608" y2="538.6995888845989" stroke="#111" stroke-width="2"/><line x1="630" y1="583.8015482776465" x2="630" y2="258.54960202656747" stroke="#4d5964"/><line x1="623" y1="583.8015482776465" x2="637" y2="583.8015482776465" stroke="#4d5964"/><line x1="623" y1="258.54960202656747" x2="637" y2="258.54960202656747" stroke="#4d5964"/><rect x="618" y="281.2971489385872" width="24" height="199.52344127022963" fill="#e17632" fill-opacity=".72" stroke="#4d5964"/><line x1="618" y1="358.35334205705715" x2="642" y2="358.35334205705715" stroke="#111" stroke-width="2"/><text x="787.1428571428571" y="635" text-anchor="middle" class="axis">Fault 7</text><line x1="753.1428571428571" y1="598.1372480697092" x2="753.1428571428571" y2="477.8251996287666" stroke="#4d5964"/><line x1="746.1428571428571" y1="598.1372480697092" x2="760.1428571428571" y2="598.1372480697092" stroke="#4d5964"/><line x1="746.1428571428571" y1="477.8251996287666" x2="760.1428571428571" y2="477.8251996287666" stroke="#4d5964"/><rect x="741.1428571428571" y="515.3182459723545" width="24" height="52.371704055379155" fill="#8090a0" fill-opacity=".72" stroke="#4d5964"/><line x1="741.1428571428571" y1="543.6047141655671" x2="765.1428571428571" y2="543.6047141655671" stroke="#111" stroke-width="2"/><line x1="787.1428571428571" y1="599.9299357206694" x2="787.1428571428571" y2="260.7068522995677" stroke="#4d5964"/><line x1="780.1428571428571" y1="599.9299357206694" x2="794.1428571428571" y2="599.9299357206694" stroke="#4d5964"/><line x1="780.1428571428571" y1="260.7068522995677" x2="794.1428571428571" y2="260.7068522995677" stroke="#4d5964"/><rect x="775.1428571428571" y="493.99018228776833" width="24" height="91.52245970972763" fill="#e17632" fill-opacity=".72" stroke="#4d5964"/><line x1="775.1428571428571" y1="529.7858596470383" x2="799.1428571428571" y2="529.7858596470383" stroke="#111" stroke-width="2"/><line x1="821.1428571428571" y1="601.2290986772947" x2="821.1428571428571" y2="462.5705192457983" stroke="#4d5964"/><line x1="814.1428571428571" y1="601.2290986772947" x2="828.1428571428571" y2="601.2290986772947" stroke="#4d5964"/><line x1="814.1428571428571" y1="462.5705192457983" x2="828.1428571428571" y2="462.5705192457983" stroke="#4d5964"/><rect x="809.1428571428571" y="504.48495184099363" width="24" height="73.87116175626295" fill="#3d78b5" fill-opacity=".72" stroke="#4d5964"/><line x1="809.1428571428571" y1="536.6781849736288" x2="833.1428571428571" y2="536.6781849736288" stroke="#111" stroke-width="2"/><text x="944.2857142857143" y="635" text-anchor="middle" class="axis">Fault 12</text><line x1="910.2857142857143" y1="596.8823230068124" x2="910.2857142857143" y2="471.38548876045877" stroke="#4d5964"/><line x1="903.2857142857143" y1="596.8823230068124" x2="917.2857142857143" y2="596.8823230068124" stroke="#4d5964"/><line x1="903.2857142857143" y1="471.38548876045877" x2="917.2857142857143" y2="471.38548876045877" stroke="#4d5964"/><rect x="898.2857142857143" y="502.7170979019222" width="24" height="79.69814956030518" fill="#8090a0" fill-opacity=".72" stroke="#4d5964"/><line x1="898.2857142857143" y1="531.1629193224882" x2="922.2857142857143" y2="531.1629193224882" stroke="#111" stroke-width="2"/><line x1="944.2857142857143" y1="586.7046570075047" x2="944.2857142857143" y2="379.8570308495636" stroke="#4d5964"/><line x1="937.2857142857143" y1="586.7046570075047" x2="951.2857142857143" y2="586.7046570075047" stroke="#4d5964"/><line x1="937.2857142857143" y1="379.8570308495636" x2="951.2857142857143" y2="379.8570308495636" stroke="#4d5964"/><rect x="932.2857142857143" y="430.6712308125329" width="24" height="71.42290451062496" fill="#e17632" fill-opacity=".72" stroke="#4d5964"/><line x1="932.2857142857143" y1="469.237086816932" x2="956.2857142857143" y2="469.237086816932" stroke="#111" stroke-width="2"/><line x1="978.2857142857143" y1="559.5826653204656" x2="978.2857142857143" y2="386.78065918123735" stroke="#4d5964"/><line x1="971.2857142857143" y1="559.5826653204656" x2="985.2857142857143" y2="559.5826653204656" stroke="#4d5964"/><line x1="971.2857142857143" y1="386.78065918123735" x2="985.2857142857143" y2="386.78065918123735" stroke="#4d5964"/><rect x="966.2857142857143" y="429.2014796694484" width="24" height="71.57787186327977" fill="#3d78b5" fill-opacity=".72" stroke="#4d5964"/><line x1="966.2857142857143" y1="458.17732302384854" x2="990.2857142857143" y2="458.17732302384854" stroke="#111" stroke-width="2"/><text x="1101.4285714285716" y="635" text-anchor="middle" class="axis">Fault 14</text><line x1="1067.4285714285716" y1="589.2856085772491" x2="1067.4285714285716" y2="473.6186195579543" stroke="#4d5964"/><line x1="1060.4285714285716" y1="589.2856085772491" x2="1074.4285714285716" y2="589.2856085772491" stroke="#4d5964"/><line x1="1060.4285714285716" y1="473.6186195579543" x2="1074.4285714285716" y2="473.6186195579543" stroke="#4d5964"/><rect x="1055.4285714285716" y="507.7776487679983" width="24" height="53.604530291402455" fill="#8090a0" fill-opacity=".72" stroke="#4d5964"/><line x1="1055.4285714285716" y1="532.4838639960801" x2="1079.4285714285716" y2="532.4838639960801" stroke="#111" stroke-width="2"/><line x1="1101.4285714285716" y1="600.2502947046166" x2="1101.4285714285716" y2="476.85354313662475" stroke="#4d5964"/><line x1="1094.4285714285716" y1="600.2502947046166" x2="1108.4285714285716" y2="600.2502947046166" stroke="#4d5964"/><line x1="1094.4285714285716" y1="476.85354313662475" x2="1108.4285714285716" y2="476.85354313662475" stroke="#4d5964"/><rect x="1089.4285714285716" y="519.6812915428243" width="24" height="73.33103929310653" fill="#e17632" fill-opacity=".72" stroke="#4d5964"/><line x1="1089.4285714285716" y1="562.1794083399959" x2="1113.4285714285716" y2="562.1794083399959" stroke="#111" stroke-width="2"/><line x1="1135.4285714285716" y1="598.5344333570021" x2="1135.4285714285716" y2="471.3848110631644" stroke="#4d5964"/><line x1="1128.4285714285716" y1="598.5344333570021" x2="1142.4285714285716" y2="598.5344333570021" stroke="#4d5964"/><line x1="1128.4285714285716" y1="471.3848110631644" x2="1142.4285714285716" y2="471.3848110631644" stroke="#4d5964"/><rect x="1123.4285714285716" y="526.4626056999965" width="24" height="65.62144765030791" fill="#3d78b5" fill-opacity=".72" stroke="#4d5964"/><line x1="1123.4285714285716" y1="569.9611110981093" x2="1147.4285714285716" y2="569.9611110981093" stroke="#111" stroke-width="2"/><text x="630" y="667" text-anchor="middle" class="axis">Fault number</text><text x="20" y="355" transform="rotate(-90 20 355)" text-anchor="middle" class="axis">log₁₀(1 + amplitude)</text><rect x="390" y="655" width="15" height="15" fill="#8090a0"/><text x="412" y="667" class="axis">pre injection</text><rect x="560" y="655" width="15" height="15" fill="#e17632"/><text x="582" y="667" class="axis">early response</text><rect x="730" y="655" width="15" height="15" fill="#3d78b5"/><text x="752" y="667" class="axis">post response</text></svg>